<svg xmlns="http://www.w3.org/2000/svg" viewBox="0 0 1200 522" width="1200" height="522">
<rect x="0" y="0" width="1200" height="522" fill="#ffffff"/>
<g font-family="ui-sans-serif, system-ui, -apple-system, 'Segoe UI', Roboto, sans-serif" fill="#1e1e1e">
<rect x="50.0" y="18" width="150" height="44" rx="8" ry="8" fill="#a5d8ff" stroke="#1e1e1e" stroke-width="1.5"/>
<text x="125.0" y="45.0" text-anchor="middle" font-size="14" font-weight="600">User</text>
<rect x="287.5" y="18" width="150" height="44" rx="8" ry="8" fill="#b2f2bb" stroke="#1e1e1e" stroke-width="1.5"/>
<text x="362.5" y="45.0" text-anchor="middle" font-size="14" font-weight="600">Agent</text>
<rect x="525.0" y="18" width="150" height="44" rx="8" ry="8" fill="#ffec99" stroke="#1e1e1e" stroke-width="1.5"/>
<text x="600.0" y="45.0" text-anchor="middle" font-size="14" font-weight="600">MCP Server</text>
<rect x="762.5" y="18" width="150" height="44" rx="8" ry="8" fill="#d0bfff" stroke="#1e1e1e" stroke-width="1.5"/>
<text x="837.5" y="45.0" text-anchor="middle" font-size="14" font-weight="600">Keycloak</text>
<rect x="1000.0" y="18" width="150" height="44" rx="8" ry="8" fill="#ffc9c9" stroke="#1e1e1e" stroke-width="1.5"/>
<text x="1075.0" y="45.0" text-anchor="middle" font-size="14" font-weight="600">Backend Service</text>
<line x1="125.0" y1="62" x2="125.0" y2="442" stroke="#adb5bd" stroke-width="1" stroke-dasharray="4 4"/>
<line x1="362.5" y1="62" x2="362.5" y2="442" stroke="#adb5bd" stroke-width="1" stroke-dasharray="4 4"/>
<line x1="600.0" y1="62" x2="600.0" y2="442" stroke="#adb5bd" stroke-width="1" stroke-dasharray="4 4"/>
<line x1="837.5" y1="62" x2="837.5" y2="442" stroke="#adb5bd" stroke-width="1" stroke-dasharray="4 4"/>
<line x1="1075.0" y1="62" x2="1075.0" y2="442" stroke="#adb5bd" stroke-width="1" stroke-dasharray="4 4"/>
<g><line x1="129.0" y1="98.0" x2="356.5" y2="98.0" stroke="#1e1e1e" stroke-width="1.6"/><polyline points="349.5,93.0 356.5,98.0 349.5,103.0" fill="none" stroke="#1e1e1e" stroke-width="1.6" stroke-linecap="round" stroke-linejoin="round"/><text x="243.8" y="91.0" text-anchor="middle" font-size="12" fill="#1e1e1e">"What expenses do I have?"</text></g>
<g><line x1="366.5" y1="134.0" x2="594.0" y2="134.0" stroke="#1e1e1e" stroke-width="1.6"/><polyline points="587.0,129.0 594.0,134.0 587.0,139.0" fill="none" stroke="#1e1e1e" stroke-width="1.6" stroke-linecap="round" stroke-linejoin="round"/><text x="481.2" y="127.0" text-anchor="middle" font-size="12" fill="#1e1e1e">Tool call + user JWT</text></g>
<rect x="485.5" y="152" width="229" height="34" rx="4" ry="4" fill="#f8f9fa" stroke="#1e1e1e" stroke-width="1"/>
<text x="600.0" y="167" text-anchor="middle" font-size="12" fill="#1e1e1e">Passes JWT as-is (no API key)</text>
<g><line x1="604.0" y1="204.0" x2="1069.0" y2="204.0" stroke="#1e1e1e" stroke-width="1.6"/><polyline points="1062.0,199.0 1069.0,204.0 1062.0,209.0" fill="none" stroke="#1e1e1e" stroke-width="1.6" stroke-linecap="round" stroke-linejoin="round"/><text x="837.5" y="197.0" text-anchor="middle" font-size="12" fill="#1e1e1e">Authorization: Bearer &lt;jwt&gt;</text></g>
<g><line x1="1071.0" y1="240.0" x2="843.5" y2="240.0" stroke="#6741d9" stroke-width="1.6"/><polyline points="850.5,235.0 843.5,240.0 850.5,245.0" fill="none" stroke="#6741d9" stroke-width="1.6" stroke-linecap="round" stroke-linejoin="round"/><text x="956.2" y="233.0" text-anchor="middle" font-size="12" fill="#6741d9">Validate JWT signature (JWKS)</text></g>
<g><line x1="841.5" y1="276.0" x2="1069.0" y2="276.0" stroke="#2b8a3e" stroke-width="1.6" stroke-dasharray="6 4"/><polyline points="1062.0,271.0 1069.0,276.0 1062.0,281.0" fill="none" stroke="#2b8a3e" stroke-width="1.6" stroke-linecap="round" stroke-linejoin="round"/><text x="956.2" y="269.0" text-anchor="middle" font-size="12" fill="#2b8a3e">Signature valid  ✓</text></g>
<rect x="932.0" y="294" width="243" height="66" rx="4" ry="4" fill="#f8f9fa" stroke="#1e1e1e" stroke-width="1"/>
<text x="1053.5" y="309" text-anchor="middle" font-size="12" fill="#1e1e1e">Extracts claims from JWT</text>
<text x="1053.5" y="325" text-anchor="middle" font-size="12" fill="#1e1e1e">role, department, username</text>
<text x="1053.5" y="341" text-anchor="middle" font-size="12" fill="#1e1e1e">aud=[expense, document] (broad)</text>
<g><line x1="1071.0" y1="378.0" x2="606.0" y2="378.0" stroke="#1e1e1e" stroke-width="1.6" stroke-dasharray="6 4"/><polyline points="613.0,373.0 606.0,378.0 613.0,383.0" fill="none" stroke="#1e1e1e" stroke-width="1.6" stroke-linecap="round" stroke-linejoin="round"/><text x="837.5" y="371.0" text-anchor="middle" font-size="12" fill="#1e1e1e">Alice's expenses</text></g>
<g><line x1="358.5" y1="414.0" x2="131.0" y2="414.0" stroke="#1e1e1e" stroke-width="1.6" stroke-dasharray="6 4"/><polyline points="138.0,409.0 131.0,414.0 138.0,419.0" fill="none" stroke="#1e1e1e" stroke-width="1.6" stroke-linecap="round" stroke-linejoin="round"/><text x="243.8" y="407.0" text-anchor="middle" font-size="12" fill="#1e1e1e">Response</text></g>
<rect x="50" y="458" width="1100" height="46" rx="6" ry="6" fill="#ebfbee" stroke="#40c057" stroke-width="1.5"/>
<text x="600.0" y="486.0" text-anchor="middle" font-size="14" font-weight="600" fill="#2b8a3e">Authz: SERVICE-VERIFIED via JWKS. Crypto proof of identity, but broad audience means confused deputy risk.</text>
</g>
</svg>